mtllib BlockMonster.mtl

v 0.4375 0.0625 1.0
v 0.4375 0.0625 0.9375
v 0.4375 0.1875 1.0
v 0.4375 0.1875 0.9375
v 0.5625 0.0625 0.9375
v 0.5625 0.1875 0.9375
v 0.5625 0.0625 1.0
v 0.5625 0.1875 1.0
v 0.25 0.25 0.875
v 0.25 0.25 0.9375
v 0.25 0.75 0.875
v 0.25 0.75 0.9375
v 0.25 0.25 1.0
v 0.1875 0.25 1.0
v 0.25 0.75 1.0
v 0.1875 0.75 1.0
v 0.375 0.625 1.0
v 0.625 0.625 1.0
v 0.375 0.625 0.9375
v 0.625 0.625 0.9375
v 0.1875 0.25 0.9375
v 0.1875 0.75 0.9375
v 0.9375 0.4375 0.9375
v 0.9375 0.4375 1.0
v 0.9375 0.5625 0.9375
v 0.9375 0.5625 1.0
v 0.625 0.375 1.0
v 0.625 0.375 0.9375
v 0.6875 0.375 0.9375
v 0.6875 0.625 0.9375
v 0.1875 0.1875 1.0
v 0.1875 0.1875 0.9375
v 0.1875 0.8125 1.0
v 0.1875 0.8125 0.9375
v 0.8125 0.1875 0.9375
v 0.8125 0.25 0.9375
v 0.8125 0.1875 1.0
v 0.8125 0.25 1.0
v 0.0625 0.9375 0.0625
v 0.9375 0.9375 0.0625
v 0.0625 0.9375 0.9375
v 0.9375 0.9375 0.9375
v 0.6875 0.375 1.0
v 0.6875 0.625 1.0
v 0.6875 0.3125 0.875
v 0.6875 0.3125 0.9375
v 0.6875 0.6875 0.875
v 0.6875 0.6875 0.9375
v 0.4375 0.4375 0.9375
v 0.5625 0.4375 0.9375
v 0.4375 0.5625 0.9375
v 0.5625 0.5625 0.9375
v 0.4375 0.4375 1.0
v 0.4375 0.5625 1.0
v 0.5625 0.4375 1.0
v 0.5625 0.5625 1.0
v 0.6875 0.3125 1.0
v 0.6875 0.6875 1.0
v 0.1875 0.4375 0.9375
v 0.1875 0.4375 1.0
v 0.1875 0.5625 0.9375
v 0.1875 0.5625 1.0
v 0.0625 0.0625 0.9375
v 0.0625 0.0625 0.0625
v 0.9375 0.0625 0.0625
v 0.8125 0.75 1.0
v 0.8125 0.8125 1.0
v 0.8125 0.75 0.9375
v 0.8125 0.8125 0.9375
v 0.75 0.3125 0.875
v 0.75 0.6875 0.875
v 0.9375 0.0625 0.9375
v 0.4375 0.8125 0.9375
v 0.5625 0.8125 0.9375
v 0.4375 0.9375 0.9375
v 0.5625 0.9375 0.9375
v 0.4375 0.8125 1.0
v 0.4375 0.9375 1.0
v 0.5625 0.8125 1.0
v 0.5625 0.9375 1.0
v 0.375 0.375 0.9375
v 0.375 0.375 1.0
v 0.9375 0.25 0.9375
v 0.75 0.25 0.9375
v 0.9375 0.75 0.9375
v 0.75 0.75 0.9375
v 0.75 0.25 0.875
v 0.75 0.75 0.875
v 0.0625 0.4375 1.0
v 0.0625 0.4375 0.9375
v 0.0625 0.5625 1.0
v 0.75 0.25 1.0
v 0.75 0.75 1.0
v 0.0625 0.25 0.9375
v 0.0625 0.75 0.9375
v 0.0625 0.5625 0.9375
v 0.3125 0.3125 0.9375
v 0.3125 0.6875 0.9375
v 0.3125 0.3125 0.875
v 0.3125 0.375 0.9375
v 0.3125 0.625 0.9375
v 0.3125 0.375 1.0
v 0.3125 0.625 1.0
v 0.25 0.6875 0.875
v 0.3125 0.6875 0.875
v 0.3125 0.3125 1.0
v 0.8125 0.5625 0.9375
v 0.8125 0.5625 1.0
v 0.3125 0.6875 1.0
v 0.8125 0.4375 1.0
v 0.8125 0.4375 0.9375
v 0.25 0.3125 0.875

vn -1.0 0.0 0.0
vn 0.0 0.0 -1.0
vn 0.0 0.0 1.0
vn 1.0 0.0 0.0
vn 0.0 -1.0 0.0
vn 0.0 1.0 0.0

vt 0.0 0.0
vt 0.0 0.5
vt 0.5 0.0
vt 0.5 0.5
vt 1.0 0.0
vt 1.0 0.5
vt 0.0 1.0
vt 0.5 1.0

usemtl mtl0
f 3/1/1 2/4/1 1/2/1
f 3/1/1 4/3/1 2/4/1
f 4/1/2 5/4/2 2/2/2
f 4/1/2 6/3/2 5/4/2
f 8/1/3 1/4/3 7/2/3
f 8/1/3 3/3/3 1/4/3
f 11/3/4 10/6/4 9/4/4
f 11/3/4 12/5/4 10/6/4
f 2/1/5 7/4/5 1/2/5
f 2/1/5 5/3/5 7/4/5
f 15/2/3 14/8/3 13/7/3
f 15/2/3 16/4/3 14/8/3
f 3/1/6 6/4/6 4/2/6
f 3/1/6 8/3/6 6/4/6
f 12/2/4 13/8/4 10/7/4
f 12/2/4 15/4/4 13/8/4
f 19/2/5 18/8/5 17/7/5
f 19/2/5 20/4/5 18/8/5
f 22/2/2 10/8/2 21/7/2
f 22/2/2 12/4/2 10/8/2
f 25/1/4 24/4/4 23/2/4
f 25/1/4 26/3/4 24/4/4
f 18/2/1 28/8/1 27/7/1
f 18/2/1 20/4/1 28/8/1
f 20/2/2 29/8/2 28/7/2
f 20/2/2 30/4/2 29/8/2
f 33/2/1 32/8/1 31/7/1
f 33/2/1 34/4/1 32/8/1
f 21/2/2 35/8/2 32/7/2
f 21/2/2 36/4/2 35/8/2
f 38/2/3 31/8/3 37/7/3
f 38/2/3 14/4/3 31/8/3
f 32/2/5 37/8/5 31/7/5
f 32/2/5 35/4/5 37/8/5
f 41/3/6 40/6/6 39/4/6
f 41/3/6 42/5/6 40/6/6
f 44/2/3 27/8/3 43/7/3
f 44/2/3 18/4/3 27/8/3
f 47/3/4 46/6/4 45/4/4
f 47/3/4 48/5/4 46/6/4
f 51/1/2 50/4/2 49/2/2
f 51/1/2 52/3/2 50/4/2
f 54/1/1 49/4/1 53/2/1
f 54/1/1 51/3/1 49/4/1
f 49/1/5 55/4/5 53/2/5
f 49/1/5 50/3/5 55/4/5
f 56/1/3 53/4/3 55/2/3
f 56/1/3 54/3/3 53/4/3
f 48/2/4 57/8/4 46/7/4
f 48/2/4 58/4/4 57/8/4
f 54/1/6 52/4/6 51/2/6
f 54/1/6 56/3/6 52/4/6
f 61/1/4 60/4/4 59/2/4
f 61/1/4 62/3/4 60/4/4
f 41/3/1 64/6/1 63/4/1
f 41/3/1 39/5/1 64/6/1
f 39/3/2 65/6/2 64/4/2
f 39/3/2 40/5/2 65/6/2
f 67/2/3 16/8/3 66/7/3
f 67/2/3 33/4/3 16/8/3
f 34/2/2 68/8/2 22/7/2
f 34/2/2 69/4/2 68/8/2
f 71/3/3 45/6/3 70/4/3
f 71/3/3 47/5/3 45/6/3
f 33/2/6 69/8/6 34/7/6
f 33/2/6 67/4/6 69/8/6
f 64/3/5 72/6/5 63/4/5
f 64/3/5 65/5/5 72/6/5
f 75/1/2 74/4/2 73/2/2
f 75/1/2 76/3/2 74/4/2
f 78/1/1 73/4/1 77/2/1
f 78/1/1 75/3/1 73/4/1
f 73/1/5 79/4/5 77/2/5
f 73/1/5 74/3/5 79/4/5
f 80/1/3 77/4/3 79/2/3
f 80/1/3 78/3/3 77/4/3
f 82/2/6 28/8/6 81/7/6
f 82/2/6 27/4/6 28/8/6
f 78/1/6 76/4/6 75/2/6
f 78/1/6 80/3/6 76/4/6
f 6/1/4 7/4/4 5/2/4
f 6/1/4 8/3/4 7/4/4
f 85/3/3 84/6/3 83/4/3
f 85/3/3 86/5/3 84/6/3
f 86/3/1 87/6/1 84/4/1
f 86/3/1 88/5/1 87/6/1
f 90/1/5 60/4/5 89/2/5
f 90/1/5 59/3/5 60/4/5
f 62/1/3 89/4/3 60/2/3
f 62/1/3 91/3/3 89/4/3
f 66/2/3 92/8/3 38/7/3
f 66/2/3 93/4/3 92/8/3
f 93/2/1 84/8/1 92/7/1
f 93/2/1 86/4/1 84/8/1
f 12/3/3 94/6/3 10/4/3
f 12/3/3 95/5/3 94/6/3
f 86/2/2 36/8/2 84/7/2
f 86/2/2 68/4/2 36/8/2
f 96/1/2 59/4/2 90/2/2
f 96/1/2 61/3/2 59/4/2
f 91/1/1 90/4/1 89/2/1
f 91/1/1 96/3/1 90/4/1
f 48/3/3 97/6/3 46/4/3
f 48/3/3 98/5/3 97/6/3
f 19/2/4 82/8/4 81/7/4
f 19/2/4 17/4/4 82/8/4
f 11/3/5 86/6/5 12/4/5
f 11/3/5 88/5/5 86/6/5
f 99/3/5 46/6/5 97/4/5
f 99/3/5 45/5/5 46/6/5
f 69/2/4 37/8/4 35/7/4
f 69/2/4 67/4/4 37/8/4
f 101/2/2 81/8/2 100/7/2
f 101/2/2 19/4/2 81/8/2
f 17/2/3 102/8/3 82/7/3
f 17/2/3 103/4/3 102/8/3
f 88/3/3 104/6/3 71/4/3
f 88/3/3 11/5/3 104/6/3
f 98/3/1 99/6/1 97/4/1
f 98/3/1 105/5/1 99/6/1
f 12/2/5 93/8/5 15/7/5
f 12/2/5 86/4/5 93/8/5
f 97/2/5 57/8/5 106/7/5
f 97/2/5 46/4/5 57/8/5
f 83/3/3 63/6/3 72/4/3
f 83/3/3 94/5/3 63/6/3
f 43/2/3 106/8/3 57/7/3
f 43/2/3 102/4/3 106/8/3
f 108/1/6 25/4/6 107/2/6
f 108/1/6 26/3/6 25/4/6
f 52/1/4 55/4/4 50/2/4
f 52/1/4 56/3/4 55/4/4
f 100/2/2 46/8/2 97/7/2
f 100/2/2 29/4/2 46/8/2
f 109/2/1 97/8/1 106/7/1
f 109/2/1 98/4/1 97/8/1
f 26/1/3 110/4/3 24/2/3
f 26/1/3 108/3/3 110/4/3
f 111/1/5 24/4/5 110/2/5
f 111/1/5 23/3/5 24/4/5
f 98/2/2 30/8/2 101/7/2
f 98/2/2 48/4/2 30/8/2
f 13/2/6 84/8/6 10/7/6
f 13/2/6 92/4/6 84/8/6
f 109/2/6 48/8/6 98/7/6
f 109/2/6 58/4/6 48/8/6
f 108/1/1 111/4/1 110/2/1
f 108/1/1 107/3/1 111/4/1
f 58/2/3 103/8/3 44/7/3
f 58/2/3 109/4/3 103/8/3
f 107/1/2 23/4/2 111/2/2
f 107/1/2 25/3/2 23/4/2
f 40/3/4 72/6/4 65/4/4
f 40/3/4 42/5/4 72/6/4
f 70/3/3 9/6/3 87/4/3
f 70/3/3 112/5/3 9/6/3
f 10/3/6 87/6/6 9/4/6
f 10/3/6 84/5/6 87/6/6
f 98/3/6 47/6/6 105/4/6
f 98/3/6 48/5/6 47/6/6
f 105/3/3 112/6/3 99/4/3
f 105/3/3 104/5/3 112/6/3
f 42/3/3 95/6/3 85/4/3
f 42/3/3 41/5/3 95/6/3
f 76/1/4 79/4/4 74/2/4
f 76/1/4 80/3/4 79/4/4
f 91/1/6 61/4/6 96/2/6
f 91/1/6 62/3/6 61/4/6
