mtllib BlockMonster.mtl

v 0.4375 0.0625 1.0
v 0.4375 0.0625 0.9375
v 0.4375 0.1875 1.0
v 0.4375 0.1875 0.9375
v 0.5625 0.0625 0.9375
v 0.5625 0.1875 0.9375
v 0.5625 0.0625 1.0
v 0.5625 0.1875 1.0
v 0.25 0.25 0.875
v 0.25 0.25 0.9375
v 0.25 0.75 0.875
v 0.25 0.75 0.9375
v 0.25 0.25 1.0
v 0.1875 0.25 1.0
v 0.25 0.75 1.0
v 0.1875 0.75 1.0
v 0.375 0.625 1.0
v 0.625 0.625 1.0
v 0.375 0.625 0.9375
v 0.625 0.625 0.9375
v 0.1875 0.25 0.9375
v 0.1875 0.75 0.9375
v 0.9375 0.4375 0.9375
v 0.9375 0.4375 1.0
v 0.9375 0.5625 0.9375
v 0.9375 0.5625 1.0
v 0.625 0.375 1.0
v 0.625 0.375 0.9375
v 0.6875 0.375 0.9375
v 0.6875 0.625 0.9375
v 0.1875 0.1875 1.0
v 0.1875 0.1875 0.9375
v 0.1875 0.8125 1.0
v 0.1875 0.8125 0.9375
v 0.8125 0.1875 0.9375
v 0.8125 0.25 0.9375
v 0.8125 0.1875 1.0
v 0.8125 0.25 1.0
v 0.0625 0.9375 0.0625
v 0.9375 0.9375 0.0625
v 0.0625 0.9375 0.9375
v 0.9375 0.9375 0.9375
v 0.6875 0.375 1.0
v 0.6875 0.625 1.0
v 0.6875 0.3125 0.875
v 0.6875 0.3125 0.9375
v 0.6875 0.6875 0.875
v 0.6875 0.6875 0.9375
v 0.4375 0.4375 0.9375
v 0.5625 0.4375 0.9375
v 0.4375 0.5625 0.9375
v 0.5625 0.5625 0.9375
v 0.4375 0.4375 1.0
v 0.4375 0.5625 1.0
v 0.5625 0.4375 1.0
v 0.5625 0.5625 1.0
v 0.6875 0.3125 1.0
v 0.6875 0.6875 1.0
v 0.1875 0.4375 0.9375
v 0.1875 0.4375 1.0
v 0.1875 0.5625 0.9375
v 0.1875 0.5625 1.0
v 0.0625 0.0625 0.9375
v 0.0625 0.0625 0.0625
v 0.9375 0.0625 0.0625
v 0.8125 0.75 1.0
v 0.8125 0.8125 1.0
v 0.8125 0.75 0.9375
v 0.8125 0.8125 0.9375
v 0.75 0.3125 0.875
v 0.75 0.6875 0.875
v 0.9375 0.0625 0.9375
v 0.4375 0.8125 0.9375
v 0.5625 0.8125 0.9375
v 0.4375 0.9375 0.9375
v 0.5625 0.9375 0.9375
v 0.4375 0.8125 1.0
v 0.4375 0.9375 1.0
v 0.5625 0.8125 1.0
v 0.5625 0.9375 1.0
v 0.375 0.375 0.9375
v 0.375 0.375 1.0
v 0.9375 0.25 0.9375
v 0.75 0.25 0.9375
v 0.9375 0.75 0.9375
v 0.75 0.75 0.9375
v 0.75 0.25 0.875
v 0.75 0.75 0.875
v 0.0625 0.4375 1.0
v 0.0625 0.4375 0.9375
v 0.0625 0.5625 1.0
v 0.75 0.25 1.0
v 0.75 0.75 1.0
v 0.0625 0.25 0.9375
v 0.0625 0.75 0.9375
v 0.0625 0.5625 0.9375
v 0.3125 0.3125 0.9375
v 0.3125 0.6875 0.9375
v 0.3125 0.3125 0.875
v 0.3125 0.375 0.9375
v 0.3125 0.625 0.9375
v 0.3125 0.375 1.0
v 0.3125 0.625 1.0
v 0.25 0.6875 0.875
v 0.3125 0.6875 0.875
v 0.3125 0.3125 1.0
v 0.8125 0.5625 0.9375
v 0.8125 0.5625 1.0
v 0.3125 0.6875 1.0
v 0.8125 0.4375 1.0
v 0.8125 0.4375 0.9375
v 0.25 0.3125 0.875

vt 0.0125 0.9875
vt 0.0125 0.5125
vt 0.4875 0.9875
vt 0.4875 0.5125
vt 0.5125 0.9875
vt 0.5125 0.5125
vt 0.9875 0.9875
vt 0.9875 0.5125
vt 0.0125 0.4875
vt 0.0125 0.0125
vt 0.4875 0.4875
vt 0.4875 0.0125

vn -1.0 0.0 0.0
vn 0.0 0.0 -1.0
vn 0.0 0.0 1.0
vn 1.0 0.0 0.0
vn 0.0 -1.0 0.0
vn 0.0 1.0 0.0

usemtl mtl0
f 2/4/1 1/2/1 3/1/1 4/3/1
f 5/4/2 2/2/2 4/1/2 6/3/2
f 1/4/3 7/2/3 8/1/3 3/3/3
f 10/8/4 9/6/4 11/5/4 12/7/4
f 7/4/5 1/2/5 2/1/5 5/3/5
f 14/12/3 13/10/3 15/9/3 16/11/3
f 6/4/6 4/2/6 3/1/6 8/3/6
f 13/12/4 10/10/4 12/9/4 15/11/4
f 18/12/5 17/10/5 19/9/5 20/11/5
f 10/12/2 21/10/2 22/9/2 12/11/2
f 24/4/4 23/2/4 25/1/4 26/3/4
f 28/12/1 27/10/1 18/9/1 20/11/1
f 29/12/2 28/10/2 20/9/2 30/11/2
f 32/12/1 31/10/1 33/9/1 34/11/1
f 35/12/2 32/10/2 21/9/2 36/11/2
f 31/12/3 37/10/3 38/9/3 14/11/3
f 37/12/5 31/10/5 32/9/5 35/11/5
f 40/8/6 39/6/6 41/5/6 42/7/6
f 27/12/3 43/10/3 44/9/3 18/11/3
f 46/8/4 45/6/4 47/5/4 48/7/4
f 50/4/2 49/2/2 51/1/2 52/3/2
f 49/4/1 53/2/1 54/1/1 51/3/1
f 55/4/5 53/2/5 49/1/5 50/3/5
f 53/4/3 55/2/3 56/1/3 54/3/3
f 57/12/4 46/10/4 48/9/4 58/11/4
f 52/4/6 51/2/6 54/1/6 56/3/6
f 60/4/4 59/2/4 61/1/4 62/3/4
f 64/8/1 63/6/1 41/5/1 39/7/1
f 65/8/2 64/6/2 39/5/2 40/7/2
f 16/12/3 66/10/3 67/9/3 33/11/3
f 68/12/2 22/10/2 34/9/2 69/11/2
f 45/8/3 70/6/3 71/5/3 47/7/3
f 69/12/6 34/10/6 33/9/6 67/11/6
f 72/8/5 63/6/5 64/5/5 65/7/5
f 74/4/2 73/2/2 75/1/2 76/3/2
f 73/4/1 77/2/1 78/1/1 75/3/1
f 79/4/5 77/2/5 73/1/5 74/3/5
f 77/4/3 79/2/3 80/1/3 78/3/3
f 28/12/6 81/10/6 82/9/6 27/11/6
f 76/4/6 75/2/6 78/1/6 80/3/6
f 7/4/4 5/2/4 6/1/4 8/3/4
f 84/8/3 83/6/3 85/5/3 86/7/3
f 87/8/1 84/6/1 86/5/1 88/7/1
f 60/4/5 89/2/5 90/1/5 59/3/5
f 89/4/3 60/2/3 62/1/3 91/3/3
f 92/12/3 38/10/3 66/9/3 93/11/3
f 84/12/1 92/10/1 93/9/1 86/11/1
f 94/8/3 10/6/3 12/5/3 95/7/3
f 36/12/2 84/10/2 86/9/2 68/11/2
f 59/4/2 90/2/2 96/1/2 61/3/2
f 90/4/1 89/2/1 91/1/1 96/3/1
f 97/8/3 46/6/3 48/5/3 98/7/3
f 82/12/4 81/10/4 19/9/4 17/11/4
f 86/8/5 12/6/5 11/5/5 88/7/5
f 46/8/5 97/6/5 99/5/5 45/7/5
f 37/12/4 35/10/4 69/9/4 67/11/4
f 81/12/2 100/10/2 101/9/2 19/11/2
f 102/12/3 82/10/3 17/9/3 103/11/3
f 104/8/3 71/6/3 88/5/3 11/7/3
f 99/8/1 97/6/1 98/5/1 105/7/1
f 93/12/5 15/10/5 12/9/5 86/11/5
f 57/12/5 106/10/5 97/9/5 46/11/5
f 63/8/3 72/6/3 83/5/3 94/7/3
f 106/12/3 57/10/3 43/9/3 102/11/3
f 25/4/6 107/2/6 108/1/6 26/3/6
f 55/4/4 50/2/4 52/1/4 56/3/4
f 46/12/2 97/10/2 100/9/2 29/11/2
f 97/12/1 106/10/1 109/9/1 98/11/1
f 110/4/3 24/2/3 26/1/3 108/3/3
f 24/4/5 110/2/5 111/1/5 23/3/5
f 30/12/2 101/10/2 98/9/2 48/11/2
f 84/12/6 10/10/6 13/9/6 92/11/6
f 48/12/6 98/10/6 109/9/6 58/11/6
f 111/4/1 110/2/1 108/1/1 107/3/1
f 103/12/3 44/10/3 58/9/3 109/11/3
f 23/4/2 111/2/2 107/1/2 25/3/2
f 72/8/4 65/6/4 40/5/4 42/7/4
f 9/8/3 87/6/3 70/5/3 112/7/3
f 87/8/6 9/6/6 10/5/6 84/7/6
f 47/8/6 105/6/6 98/5/6 48/7/6
f 112/8/3 99/6/3 105/5/3 104/7/3
f 95/8/3 85/6/3 42/5/3 41/7/3
f 79/4/4 74/2/4 76/1/4 80/3/4
f 61/4/6 96/2/6 91/1/6 62/3/6
