mtllib SmallBlock.mtl

v 0.8125 0.0 0.8125
v 0.1875 0.0 0.8125
v 0.8125 0.0625 0.8125
v 0.1875 0.0625 0.8125
v 0.875 0.6875 0.25
v 0.875 0.6875 0.75
v 0.875 0.75 0.25
v 0.875 0.75 0.75
v 1.0 0.3125 0.6875
v 0.9375 0.3125 0.6875
v 1.0 0.6875 0.6875
v 0.9375 0.6875 0.6875
v 0.25 0.875 0.25
v 0.3125 0.875 0.25
v 0.25 0.875 0.75
v 0.3125 0.875 0.75
v 0.3125 0.0 0.6875
v 0.3125 0.0 0.3125
v 0.3125 0.0625 0.6875
v 0.3125 0.0625 0.3125
v 0.6875 0.0 0.3125
v 0.6875 0.0625 0.3125
v 0.1875 0.1875 1.0
v 0.1875 0.1875 0.9375
v 0.1875 0.25 1.0
v 0.1875 0.25 0.9375
v 0.375 0.0625 0.3125
v 0.375 0.0625 0.6875
v 0.25 0.1875 0.9375
v 0.25 0.25 0.9375
v 0.0 0.75 0.75
v 0.0625 0.75 0.75
v 0.0 0.75 0.25
v 0.0625 0.75 0.25
v 0.0 0.1875 0.8125
v 0.0625 0.1875 0.8125
v 0.0 0.1875 0.1875
v 0.0625 0.1875 0.1875
v 0.8125 0.1875 1.0
v 0.8125 0.25 1.0
v 0.0 0.25 0.8125
v 0.0 0.25 0.1875
v 0.25 0.1875 1.0
v 0.0 0.8125 0.1875
v 0.0625 0.8125 0.1875
v 0.0625 0.25 0.1875
v 0.0625 0.25 0.8125
v 0.375 0.0 0.6875
v 0.375 0.0 0.3125
v 0.3125 0.0625 0.25
v 0.6875 0.0625 0.25
v 0.6875 0.125 0.3125
v 0.3125 0.125 0.3125
v 0.3125 0.125 0.25
v 0.6875 0.125 0.25
v 0.8125 0.1875 0.0
v 0.8125 0.1875 0.0625
v 0.8125 0.8125 0.0
v 0.8125 0.8125 0.0625
v 1.0 0.1875 0.8125
v 0.9375 0.1875 0.8125
v 1.0 0.8125 0.8125
v 0.9375 0.8125 0.8125
v 0.25 0.6875 0.125
v 0.75 0.6875 0.125
v 0.25 0.75 0.125
v 0.75 0.75 0.125
v 0.3125 0.3125 0.0625
v 0.6875 0.3125 0.0625
v 0.3125 0.3125 0.125
v 0.6875 0.3125 0.125
v 0.3125 0.3125 0.0
v 0.3125 0.6875 0.0625
v 0.3125 0.6875 0.0
v 0.6875 0.3125 0.0
v 0.3125 0.375 0.0
v 0.6875 0.375 0.0
v 0.6875 0.375 0.0625
v 0.3125 0.375 0.0625
v 0.75 0.9375 0.75
v 0.75 0.9375 0.25
v 0.75 1.0 0.75
v 0.75 1.0 0.25
v 0.8125 0.0 0.1875
v 0.8125 0.0625 0.1875
v 0.75 0.0625 0.1875
v 0.75 0.0625 0.8125
v 0.75 0.0 0.8125
v 0.75 0.0 0.1875
v 0.0625 0.3125 0.3125
v 0.0625 0.3125 0.6875
v 0.0625 0.375 0.3125
v 0.0625 0.375 0.6875
v 0.0 0.3125 0.3125
v 0.0 0.6875 0.3125
v 0.0625 0.6875 0.3125
v 0.0 0.3125 0.6875
v 0.0 0.375 0.6875
v 0.0 0.375 0.3125
v 1.0 0.625 0.3125
v 1.0 0.625 0.6875
v 1.0 0.6875 0.3125
v 0.9375 0.6875 0.3125
v 0.9375 0.625 0.6875
v 0.9375 0.625 0.3125
v 1.0 0.25 0.1875
v 1.0 0.25 0.25
v 1.0 0.75 0.1875
v 1.0 0.75 0.25
v 0.9375 0.25 0.25
v 0.9375 0.25 0.1875
v 0.9375 0.75 0.25
v 0.9375 0.75 0.1875
v 0.25 0.75 0.875
v 0.75 0.75 0.875
v 0.25 0.75 0.8125
v 0.75 0.75 0.8125
v 0.1875 0.9375 0.8125
v 0.25 0.9375 0.8125
v 0.1875 0.9375 0.1875
v 0.25 0.9375 0.1875
v 0.75 0.25 1.0
v 0.8125 0.75 1.0
v 0.75 0.75 1.0
v 0.75 0.8125 0.875
v 0.25 0.8125 0.875
v 0.8125 0.9375 0.1875
v 0.1875 1.0 0.1875
v 0.8125 1.0 0.1875
v 0.1875 1.0 0.8125
v 0.25 0.0 0.25
v 0.25 0.0 0.75
v 0.25 0.0625 0.25
v 0.25 0.0625 0.75
v 0.25 1.0 0.1875
v 0.25 1.0 0.8125
v 0.6875 0.875 0.75
v 0.3125 0.875 0.6875
v 0.6875 0.875 0.6875
v 0.3125 0.9375 0.6875
v 0.6875 0.9375 0.6875
v 0.3125 0.9375 0.75
v 0.6875 0.9375 0.75
v 0.1875 0.8125 0.0
v 0.1875 0.8125 0.0625
v 0.1875 0.75 0.0
v 0.8125 0.75 0.0
v 0.8125 0.75 0.0625
v 0.1875 0.75 0.0625
v 0.6875 1.0 0.6875
v 0.3125 1.0 0.6875
v 0.3125 0.3125 0.8125
v 0.25 0.3125 0.8125
v 0.3125 0.6875 0.8125
v 0.25 0.6875 0.8125
v 0.6875 0.625 1.0
v 0.3125 0.625 1.0
v 0.6875 0.6875 1.0
v 0.3125 0.6875 1.0
v 0.9375 0.75 0.8125
v 0.9375 0.8125 0.1875
v 0.75 0.25 0.9375
v 0.25 0.25 0.8125
v 0.75 0.25 0.8125
v 0.9375 0.25 0.75
v 1.0 0.25 0.75
v 1.0 0.8125 0.1875
v 1.0 0.75 0.8125
v 0.625 0.9375 0.6875
v 0.625 0.9375 0.3125
v 0.6875 0.9375 0.3125
v 0.75 0.8125 0.9375
v 0.8125 0.8125 0.9375
v 0.75 0.8125 1.0
v 0.8125 0.8125 1.0
v 0.8125 0.75 0.9375
v 0.75 0.3125 0.8125
v 0.625 1.0 0.3125
v 0.6875 1.0 0.3125
v 0.625 1.0 0.6875
v 0.25 0.75 0.9375
v 0.75 0.75 0.9375
v 0.6875 0.125 0.75
v 0.75 0.125 0.75
v 0.75 0.125 0.25
v 0.1875 0.25 0.0
v 0.25 0.25 0.0
v 0.25 0.75 0.0
v 0.125 0.25 0.75
v 0.125 0.25 0.25
v 0.125 0.3125 0.75
v 0.125 0.3125 0.25
v 0.25 0.25 0.0625
v 0.25 0.75 0.0625
v 0.0625 0.25 0.75
v 0.0625 0.75 0.8125
v 0.0 0.25 0.75
v 0.0 0.75 0.8125
v 0.1875 0.25 0.0625
v 0.6875 0.375 0.875
v 0.625 0.375 0.875
v 0.6875 0.625 0.875
v 0.625 0.625 0.875
v 0.75 0.0625 0.25
v 0.25 0.0625 0.0625
v 0.75 0.0625 0.0625
v 0.6875 0.0625 0.6875
v 0.3125 0.125 0.6875
v 0.6875 0.3125 0.875
v 0.6875 0.3125 1.0
v 0.6875 0.6875 0.875
v 0.25 0.1875 0.875
v 0.25 0.25 0.875
v 0.1875 0.25 0.875
v 0.0625 0.75 0.0625
v 0.9375 0.75 0.0625
v 0.0625 0.9375 0.0625
v 0.9375 0.9375 0.0625
v 0.0625 0.75 0.9375
v 0.0625 0.9375 0.9375
v 0.6875 0.6875 0.0625
v 0.3125 0.6875 0.125
v 0.375 0.375 0.9375
v 0.375 0.375 0.875
v 0.375 0.625 0.9375
v 0.375 0.625 0.875
v 0.75 0.875 0.75
v 0.75 0.875 0.25
v 0.625 0.375 0.9375
v 0.625 0.625 0.9375
v 0.1875 0.75 0.875
v 0.1875 0.75 0.9375
v 0.0625 0.25 0.0625
v 0.0625 0.25 0.25
v 0.8125 0.25 0.9375
v 0.75 0.25 0.875
v 0.8125 0.25 0.875
v 0.8125 0.75 0.875
v 0.875 0.3125 0.6875
v 0.875 0.3125 0.75
v 0.875 0.6875 0.6875
v 0.25 0.125 0.25
v 0.25 0.125 0.75
v 0.0625 0.1875 0.9375
v 0.0625 0.25 0.9375
v 0.75 0.3125 0.125
v 0.6875 0.6875 0.125
v 0.9375 0.75 0.9375
v 0.9375 0.8125 0.9375
v 0.3125 0.3125 0.9375
v 0.3125 0.6875 0.9375
v 0.3125 0.625 0.875
v 0.3125 0.6875 0.875
v 0.6875 0.875 0.3125
v 0.25 0.25 0.125
v 0.125 0.3125 0.3125
v 0.125 0.6875 0.3125
v 0.125 0.6875 0.25
v 0.25 0.0625 0.1875
v 0.75 0.0 0.25
v 0.25 0.0 0.1875
v 0.6875 0.3125 0.8125
v 0.6875 0.6875 0.8125
v 0.3125 0.875 0.3125
v 0.3125 0.9375 0.3125
v 0.75 0.25 0.0
v 0.75 0.25 0.0625
v 0.625 0.375 1.0
v 0.625 0.625 1.0
v 0.0625 0.6875 0.6875
v 0.125 0.6875 0.6875
v 0.375 0.375 1.0
v 0.75 0.3125 0.0625
v 0.75 0.6875 0.0625
v 0.25 0.9375 0.75
v 0.25 1.0 0.75
v 0.75 1.0 0.8125
v 0.75 0.9375 0.8125
v 0.9375 0.3125 0.3125
v 0.875 0.3125 0.3125
v 0.875 0.6875 0.3125
v 0.9375 0.3125 0.25
v 0.9375 0.6875 0.25
v 0.25 0.8125 0.9375
v 0.875 0.3125 0.25
v 0.125 0.3125 0.6875
v 0.125 0.6875 0.75
v 0.0625 0.3125 0.75
v 0.0625 0.6875 0.75
v 0.6875 0.125 0.6875
v 0.25 0.3125 0.9375
v 0.25 0.6875 0.9375
v 1.0 0.375 0.625
v 1.0 0.375 0.6875
v 1.0 0.625 0.625
v 0.9375 0.375 0.625
v 0.9375 0.625 0.625
v 0.9375 0.375 0.6875
v 0.25 0.9375 0.25
v 0.3125 0.9375 0.25
v 0.375 0.0 0.375
v 0.375 0.0 0.625
v 0.375 0.0625 0.375
v 0.375 0.0625 0.625
v 0.625 0.0 0.6875
v 0.625 0.0 0.625
v 0.625 0.0625 0.625
v 0.625 0.0625 0.6875
v 0.25 0.9375 0.0625
v 0.25 0.9375 0.9375
v 0.6875 0.375 1.0
v 0.9375 0.25 0.9375
v 0.9375 0.75 0.75
v 0.875 0.25 0.75
v 0.75 0.25 0.125
v 0.75 0.0625 0.9375
v 0.9375 0.0625 0.9375
v 0.9375 0.0625 0.0625
v 0.0 0.375 0.375
v 0.0625 0.375 0.375
v 0.0 0.375 0.625
v 0.0625 0.375 0.625
v 0.375 0.375 0.0625
v 0.375 0.625 0.0625
v 0.3125 0.625 0.0625
v 0.375 0.375 0.0
v 0.3125 0.625 0.0
v 0.375 0.625 0.0
v 0.125 0.75 0.25
v 0.75 0.1875 0.875
v 0.75 0.1875 0.9375
v 0.125 0.75 0.75
v 0.0625 0.6875 0.25
v 0.0625 0.625 0.375
v 0.0 0.625 0.375
v 0.0625 0.625 0.3125
v 0.0 0.625 0.3125
v 0.25 0.6875 0.0625
v 0.75 0.75 0.0625
v 0.375 0.9375 0.375
v 0.625 0.9375 0.375
v 0.375 0.9375 0.3125
v 0.625 1.0 0.375
v 0.375 1.0 0.375
v 0.375 1.0 0.3125
v 0.75 0.0625 0.75
v 0.75 0.9375 0.9375
v 0.9375 0.3125 0.75
v 0.25 0.75 1.0
v 0.875 0.25 0.25
v 0.25 0.8125 1.0
v 0.0625 0.0625 0.9375
v 0.9375 0.1875 0.9375
v 0.9375 0.625 0.375
v 1.0 0.625 0.375
v 0.9375 0.25 0.0625
v 0.6875 0.6875 0.9375
v 0.75 0.3125 0.9375
v 0.625 0.9375 0.625
v 0.625 1.0 0.625
v 0.625 0.625 0.0625
v 0.625 0.625 0.0
v 0.6875 0.0625 0.75
v 0.25 0.3125 0.0625
v 0.25 0.3125 0.125
v 0.0625 0.3125 0.25
v 0.0 0.625 0.625
v 0.0625 0.625 0.625
v 0.75 0.9375 0.0625
v 0.9375 0.9375 0.9375
v 0.0625 0.0625 0.0625
v 0.6875 0.875 0.25
v 0.25 0.0625 0.9375
v 0.375 1.0 0.625
v 0.375 1.0 0.6875
v 0.375 0.9375 0.625
v 0.375 0.9375 0.6875
v 0.3125 0.125 0.75
v 0.3125 0.0625 0.75
v 0.0 0.625 0.6875
v 0.625 0.375 0.0
v 0.625 0.375 0.0625
v 0.0625 0.625 0.6875
v 0.6875 0.9375 0.25
v 0.625 0.0 0.375
v 0.625 0.0625 0.375
v 0.6875 0.3125 0.9375
v 0.75 0.6875 0.9375
v 0.3125 0.375 1.0
v 0.375 0.625 1.0
v 0.9375 0.375 0.375
v 1.0 0.375 0.375
v 0.6875 0.625 0.0625
v 0.6875 0.625 0.0
v 0.25 0.25 1.0
v 0.75 0.1875 1.0
v 0.9375 0.6875 0.75
v 0.9375 0.375 0.3125
v 1.0 0.375 0.3125
v 0.625 0.0625 0.3125
v 0.625 0.0 0.3125
v 0.75 0.75 0.0
v 0.75 0.9375 0.1875
v 0.25 1.0 0.25
v 0.75 1.0 0.1875
v 0.3125 0.3125 0.875
v 0.3125 0.375 0.875
v 0.25 0.0 0.8125
v 0.75 0.0 0.75
v 0.25 0.0625 0.8125
v 0.1875 0.75 1.0
v 0.75 0.6875 0.8125
v 0.3125 0.3125 1.0
v 0.0625 0.8125 0.9375
v 0.0 0.6875 0.6875
v 0.0 0.25 0.25
v 0.0 0.75 0.1875
v 0.8125 0.9375 0.8125
v 0.0625 0.75 0.1875
v 0.8125 1.0 0.8125
v 0.6875 0.6875 0.0
v 0.0625 0.8125 0.8125
v 0.0 0.8125 0.8125
v 0.1875 0.8125 1.0
v 0.1875 0.8125 0.9375
v 0.3125 1.0 0.3125
v 0.8125 0.25 0.0
v 1.0 0.75 0.75
v 0.9375 0.25 0.8125
v 0.8125 0.25 0.0625
v 1.0 0.25 0.8125
v 0.9375 0.1875 0.1875
v 1.0 0.1875 0.1875
v 0.6875 0.0 0.6875
v 0.8125 0.1875 0.9375
v 0.1875 0.1875 0.0625
v 0.1875 0.1875 0.0
v 0.1875 0.0625 0.1875
v 0.1875 0.0 0.1875
v 1.0 0.3125 0.3125

vt 0.0125 0.9875
vt 0.0125 0.5125
vt 0.4875 0.9875
vt 0.4875 0.5125
vt 0.5125 0.9875
vt 0.5125 0.5125
vt 0.9875 0.9875
vt 0.9875 0.5125
vt 0.0125 0.4875
vt 0.0125 0.0125
vt 0.4875 0.4875
vt 0.4875 0.0125

vn 0.0 0.0 1.0
vn 1.0 0.0 0.0
vn 0.0 1.0 0.0
vn -1.0 0.0 0.0
vn 0.0 0.0 -1.0
vn 0.0 -1.0 0.0

usemtl mtl0
f 2/4/1 1/2/1 3/1/1 4/3/1
f 6/8/2 5/6/2 7/5/2 8/7/2
f 10/4/1 9/2/1 11/1/1 12/3/1
f 14/8/3 13/6/3 15/5/3 16/7/3
f 18/4/4 17/2/4 19/1/4 20/3/4
f 21/4/5 18/2/5 20/1/5 22/3/5
f 24/4/4 23/2/4 25/1/4 26/3/4
f 27/4/3 20/2/3 19/1/3 28/3/3
f 29/4/5 24/2/5 26/1/5 30/3/5
f 32/4/6 31/2/6 33/1/6 34/3/6
f 36/4/6 35/2/6 37/1/6 38/3/6
f 23/4/1 39/2/1 40/1/1 25/3/1
f 37/4/4 35/2/4 41/1/4 42/3/4
f 43/4/6 23/2/6 24/1/6 29/3/6
f 38/4/5 37/2/5 44/1/5 45/3/5
f 36/4/2 38/2/2 46/1/2 47/3/2
f 48/4/6 17/2/6 18/1/6 49/3/6
f 22/12/6 20/10/6 50/9/6 51/11/6
f 20/12/1 22/10/1 52/9/1 53/11/1
f 55/12/3 54/10/3 53/9/3 52/11/3
f 57/4/2 56/2/2 58/1/2 59/3/2
f 61/4/1 60/2/1 62/1/1 63/3/1
f 65/8/5 64/6/5 66/5/5 67/7/5
f 69/12/3 68/10/3 70/9/3 71/11/3
f 72/4/4 68/2/4 73/1/4 74/3/4
f 75/4/5 72/2/5 76/1/5 77/3/5
f 68/4/1 69/2/1 78/1/1 79/3/1
f 69/4/6 68/2/6 72/1/6 75/3/6
f 81/4/4 80/2/4 82/1/4 83/3/4
f 1/4/2 84/2/2 85/1/2 3/3/2
f 85/4/3 86/2/3 87/1/3 3/3/3
f 1/4/6 88/2/6 89/1/6 84/3/6
f 91/4/2 90/2/2 92/1/2 93/3/2
f 90/4/5 94/2/5 95/1/5 96/3/5
f 94/4/4 97/2/4 98/1/4 99/3/4
f 91/4/6 97/2/6 94/1/6 90/3/6
f 101/4/2 100/2/2 102/1/2 11/3/2
f 102/4/3 103/2/3 12/1/3 11/3/3
f 105/4/4 104/2/4 12/1/4 103/3/4
f 107/4/2 106/2/2 108/1/2 109/3/2
f 111/4/4 110/2/4 112/1/4 113/3/4
f 115/8/6 114/6/6 116/5/6 117/7/6
f 119/4/6 118/2/6 120/1/6 121/3/6
f 122/4/1 40/2/1 123/1/1 124/3/1
f 114/8/1 115/6/1 125/5/1 126/7/1
f 110/4/1 107/2/1 109/1/1 112/3/1
f 127/4/5 120/2/5 128/1/5 129/3/5
f 120/4/4 118/2/4 130/1/4 128/3/4
f 132/4/2 131/2/2 133/1/2 134/3/2
f 135/4/3 128/2/3 130/1/3 136/3/3
f 137/12/6 16/10/6 138/9/6 139/11/6
f 139/12/5 138/10/5 140/9/5 141/11/5
f 141/12/3 140/10/3 142/9/3 143/11/3
f 58/4/3 144/2/3 145/1/3 59/3/3
f 147/4/5 146/2/5 144/1/5 58/3/5
f 149/4/1 148/2/1 59/1/1 145/3/1
f 140/4/1 141/2/1 150/1/1 151/3/1
f 153/8/1 152/6/1 154/5/1 155/7/1
f 157/4/1 156/2/1 158/1/1 159/3/1
f 113/4/4 160/2/4 63/1/4 161/3/4
f 162/12/6 30/10/6 163/9/6 164/11/6
f 107/4/3 110/2/3 165/1/3 166/3/3
f 167/4/3 161/2/3 63/1/3 62/3/3
f 168/4/2 108/2/2 167/1/2 62/3/2
f 141/4/6 169/2/6 170/1/6 171/3/6
f 173/4/3 172/2/3 174/1/3 175/3/3
f 123/4/2 176/2/2 173/1/2 175/3/2
f 164/12/5 163/10/5 153/9/5 177/11/5
f 179/4/3 178/2/3 180/1/3 150/3/3
f 163/12/4 30/10/4 181/9/4 116/11/4
f 141/4/2 171/2/2 179/1/2 150/3/2
f 176/4/5 182/2/5 172/1/5 173/3/5
f 184/8/6 183/6/6 55/5/6 185/7/6
f 187/4/5 186/2/5 146/1/5 188/3/5
f 190/8/4 189/6/4 191/5/4 192/7/4
f 193/4/2 187/2/2 188/1/2 194/3/2
f 47/4/2 195/2/2 32/1/2 196/3/2
f 197/4/4 41/2/4 198/1/4 31/3/4
f 199/4/1 193/2/1 194/1/1 149/3/1
f 195/4/5 197/2/5 31/1/5 32/3/5
f 201/8/1 200/6/1 202/5/1 203/7/1
f 204/8/6 133/6/6 205/5/6 206/7/6
f 207/8/6 19/6/6 20/5/6 22/7/6
f 20/8/4 19/6/4 208/5/4 53/7/4
f 22/8/5 20/6/5 53/5/5 52/7/5
f 210/4/2 209/2/2 211/1/2 158/3/2
f 29/8/2 212/6/2 213/5/2 30/7/2
f 213/8/3 214/6/3 26/5/3 30/7/3
f 216/8/5 215/6/5 217/5/5 218/7/5
f 215/8/4 219/6/4 220/5/4 217/7/4
f 69/8/5 68/6/5 73/5/5 221/7/5
f 68/8/4 70/6/4 222/5/4 73/7/4
f 71/8/6 70/6/6 68/5/6 69/7/6
f 224/8/4 223/6/4 225/5/4 226/7/4
f 228/8/4 227/6/4 80/5/4 81/7/4
f 223/8/1 229/6/1 230/5/1 225/7/1
f 229/8/6 223/6/6 224/5/6 201/7/6
f 114/4/3 231/2/3 232/1/3 181/3/3
f 193/8/5 233/6/5 215/5/5 194/7/5
f 233/8/4 234/6/4 34/5/4 215/7/4
f 235/4/6 162/2/6 236/1/6 237/3/6
f 237/4/5 236/2/5 115/1/5 238/3/5
f 236/4/4 122/2/4 124/1/4 115/3/4
f 40/4/2 237/2/2 238/1/2 123/3/2
f 240/8/2 239/6/2 241/5/2 6/7/2
f 134/8/2 133/6/2 242/5/2 243/7/2
f 244/8/1 29/6/1 30/5/1 245/7/1
f 138/8/1 139/6/1 141/5/1 140/7/1
f 246/8/5 71/6/5 247/5/5 65/7/5
f 163/8/1 164/6/1 177/5/1 153/7/1
f 176/8/6 182/6/6 115/5/6 238/7/6
f 182/8/1 248/6/1 249/5/1 172/7/1
f 115/8/4 182/6/4 172/5/4 125/7/4
f 250/12/2 152/10/2 154/9/2 251/11/2
f 202/4/5 252/2/5 253/1/5 211/3/5
f 152/12/5 153/10/5 155/9/5 154/11/5
f 211/4/3 253/2/3 159/1/3 158/3/3
f 139/8/2 254/6/2 171/5/2 141/7/2
f 255/8/2 193/6/2 194/5/2 66/7/2
f 192/8/4 256/6/4 257/5/4 258/7/4
f 86/4/3 259/2/3 133/1/3 204/3/3
f 131/4/1 260/2/1 204/1/1 133/3/1
f 260/4/6 131/2/6 261/1/6 89/3/6
f 209/8/2 262/6/2 263/5/2 211/7/2
f 138/12/2 264/10/2 265/9/2 140/11/2
f 266/4/3 187/2/3 193/1/3 267/3/3
f 200/4/5 201/2/5 203/1/5 202/3/5
f 201/4/4 268/2/4 269/1/4 203/3/4
f 271/12/6 270/10/6 96/9/6 257/11/6
f 26/8/2 214/6/2 231/5/2 232/7/2
f 201/4/3 224/2/3 272/1/3 268/3/3
f 71/12/1 246/10/1 65/9/1 247/11/1
f 69/12/4 71/10/4 247/9/4 221/11/4
f 273/12/5 69/10/5 221/9/5 274/11/5
f 80/4/5 275/2/5 276/1/5 82/3/5
f 82/4/3 276/2/3 136/1/3 277/3/3
f 278/4/6 119/2/6 275/1/6 80/3/6
f 280/12/1 279/10/1 103/9/1 281/11/1
f 279/12/2 282/10/2 283/9/2 103/11/2
f 172/8/6 284/6/6 126/5/6 125/7/6
f 285/12/4 280/10/4 281/9/4 5/11/4
f 279/12/3 280/10/3 239/9/3 10/11/3
f 236/8/1 237/6/1 238/5/1 115/7/1
f 164/8/4 236/6/4 115/5/4 117/7/4
f 191/12/2 286/10/2 271/9/2 287/11/2
f 286/12/5 91/10/5 270/9/5 271/11/5
f 91/12/4 288/10/4 289/9/4 270/11/4
f 263/8/3 154/6/3 253/5/3 211/7/3
f 22/12/4 207/10/4 290/9/4 52/11/4
f 252/8/1 202/6/1 211/5/1 253/7/1
f 291/12/1 250/10/1 251/9/1 292/11/1
f 294/4/2 293/2/2 295/1/2 101/3/2
f 293/4/5 296/2/5 297/1/5 295/3/5
f 133/8/1 204/6/1 185/5/1 242/7/1
f 296/4/4 298/2/4 104/1/4 297/3/4
f 16/12/6 15/10/6 13/9/6 14/11/6
f 13/12/4 15/10/4 275/9/4 299/11/4
f 228/12/5 13/10/5 299/9/5 81/11/5
f 300/12/3 299/10/3 275/9/3 142/11/3
f 302/4/2 301/2/2 303/1/2 304/3/2
f 305/4/6 48/2/6 302/1/6 306/3/6
f 306/4/5 302/2/5 304/1/5 307/3/5
f 190/8/3 234/6/3 195/5/3 189/7/3
f 307/4/3 304/2/3 28/1/3 308/3/3
f 309/8/3 217/6/3 220/5/3 310/7/3
f 52/8/6 53/6/6 54/5/6 55/7/6
f 268/4/1 311/2/1 156/1/1 269/3/1
f 312/8/2 165/6/2 313/5/2 248/7/2
f 165/8/5 314/6/5 8/5/5 313/7/5
f 267/8/3 193/6/3 255/5/3 315/7/3
f 257/8/3 96/6/3 270/5/3 271/7/3
f 317/8/6 316/6/6 206/5/6 318/7/6
f 320/4/3 319/2/3 321/1/3 322/3/3
f 79/4/1 323/2/1 324/1/1 325/3/1
f 326/4/5 76/2/5 327/1/5 328/3/5
f 323/4/2 326/2/2 328/1/2 324/3/2
f 234/8/1 190/6/1 329/5/1 34/7/1
f 331/4/2 330/2/2 236/1/2 162/3/2
f 287/12/2 258/10/2 329/9/2 332/11/2
f 329/12/3 34/10/3 32/9/3 332/11/3
f 333/12/4 289/10/4 32/9/4 34/11/4
f 319/4/1 320/2/1 334/1/1 335/3/1
f 320/4/2 92/2/2 336/1/2 334/3/2
f 99/4/4 319/2/4 335/1/4 337/3/4
f 64/12/1 65/10/1 67/9/1 66/11/1
f 274/12/5 338/10/5 194/9/5 339/11/5
f 339/12/3 194/10/3 66/9/3 67/11/3
f 341/4/6 340/2/6 342/1/6 170/3/6
f 340/4/1 341/2/1 343/1/1 344/3/1
f 315/12/2 267/10/2 339/9/2 67/11/2
f 178/4/3 345/2/3 344/1/3 343/3/3
f 134/12/1 346/10/1 184/9/1 243/11/1
f 227/8/5 15/6/5 275/5/5 80/7/5
f 80/8/3 275/6/3 310/5/3 347/7/3
f 165/12/2 110/10/2 282/9/2 348/11/2
f 124/4/6 349/2/6 114/1/6 115/3/6
f 110/12/5 350/10/5 7/9/5 112/11/5
f 350/12/4 314/10/4 240/9/4 285/11/4
f 165/12/6 314/10/6 350/9/6 110/11/6
f 125/4/3 126/2/3 351/1/3 174/3/3
f 114/4/4 181/2/4 284/1/4 126/3/4
f 115/4/5 114/2/5 126/1/5 125/3/5
f 10/8/6 239/6/6 280/5/6 279/7/6
f 352/8/1 317/6/1 353/5/1 244/7/1
f 295/4/6 297/2/6 354/1/6 355/3/6
f 139/8/3 138/6/3 16/5/3 137/7/3
f 10/8/2 279/6/2 103/5/2 12/7/2
f 279/8/5 280/6/5 281/5/5 103/7/5
f 195/12/1 189/10/1 332/9/1 32/11/1
f 317/8/2 318/6/2 356/5/2 312/7/2
f 91/8/1 286/6/1 271/5/1 270/7/1
f 357/12/6 251/10/6 154/9/6 263/11/6
f 30/12/1 162/10/1 358/9/1 291/11/1
f 313/8/6 8/6/6 7/5/6 112/7/6
f 341/4/4 359/2/4 360/1/4 343/3/4
f 361/4/6 324/2/6 328/1/6 362/3/6
f 185/12/3 55/10/3 183/9/3 184/11/3
f 346/12/2 204/10/2 185/9/2 184/11/2
f 346/12/6 363/10/6 51/9/6 204/11/6
f 267/12/5 193/10/5 364/9/5 273/11/5
f 193/12/4 255/10/4 66/9/4 194/11/4
f 315/12/6 255/10/6 193/9/6 267/11/6
f 255/12/1 315/10/1 246/9/1 365/11/1
f 234/12/4 195/10/4 288/9/4 366/11/4
f 190/12/5 234/10/5 34/9/5 329/11/5
f 189/12/2 190/10/2 192/9/2 191/11/2
f 182/4/2 115/2/2 125/1/2 172/3/2
f 189/12/6 195/10/6 234/9/6 190/11/6
f 368/4/6 367/2/6 335/1/6 334/3/6
f 286/8/6 91/6/6 90/5/6 256/7/6
f 218/8/3 369/6/3 347/5/3 370/7/3
f 256/8/5 90/6/5 96/5/5 257/7/5
f 90/8/4 91/6/4 270/5/4 96/7/4
f 314/12/1 165/10/1 313/9/1 8/11/1
f 67/8/6 66/6/6 194/5/6 339/7/6
f 371/8/4 352/6/4 245/5/4 233/7/4
f 318/8/5 371/6/5 233/5/5 356/7/5
f 372/8/3 14/6/3 264/5/3 254/7/3
f 239/8/1 10/6/1 12/5/1 241/7/1
f 373/8/6 352/6/6 371/5/6 205/7/6
f 360/4/3 374/2/3 375/1/3 180/3/3
f 359/4/5 376/2/5 374/1/5 360/3/5
f 332/8/6 32/6/6 34/5/6 329/7/6
f 169/4/6 377/2/6 376/1/6 359/3/6
f 376/4/2 340/2/2 344/1/2 374/3/2
f 54/12/3 242/10/3 243/9/3 378/11/3
f 204/12/5 133/10/5 242/9/5 185/11/5
f 133/12/4 134/10/4 243/9/4 242/11/4
f 379/12/6 134/10/6 133/9/6 50/11/6
f 13/8/1 228/6/1 81/5/1 299/7/1
f 321/4/4 98/2/4 380/1/4 367/3/4
f 381/4/3 326/2/3 323/1/3 382/3/3
f 227/12/6 137/10/6 372/9/6 228/11/6
f 322/4/5 321/2/5 367/1/5 368/3/5
f 93/4/2 322/2/2 368/1/2 383/3/2
f 227/12/2 228/10/2 81/9/2 80/11/2
f 81/12/3 384/10/3 143/9/3 80/11/3
f 385/4/4 306/2/4 307/1/4 386/3/4
f 262/12/3 152/10/3 250/9/3 387/11/3
f 110/8/3 350/6/3 314/5/3 165/7/3
f 292/12/1 388/10/1 182/9/1 181/11/1
f 389/4/1 272/2/1 390/1/1 157/3/1
f 195/8/4 245/6/4 219/5/4 32/7/4
f 189/8/5 195/6/5 32/5/5 332/7/5
f 392/4/3 391/2/3 296/1/3 293/3/3
f 183/8/6 378/6/6 208/5/6 290/7/6
f 382/4/1 78/2/1 393/1/1 361/3/1
f 103/8/3 281/6/3 241/5/3 12/7/3
f 77/4/5 381/2/5 362/1/5 394/3/5
f 381/4/4 382/2/4 361/1/4 362/3/4
f 330/4/5 212/2/5 213/1/5 236/3/5
f 212/4/4 29/2/4 30/1/4 213/3/4
f 350/8/1 110/6/1 112/5/1 7/7/1
f 236/4/3 213/2/3 395/1/3 122/3/3
f 5/12/4 6/10/4 8/9/4 7/11/4
f 112/12/3 7/10/3 8/9/3 313/11/3
f 396/4/6 43/2/6 212/1/6 330/3/6
f 397/12/2 283/10/2 112/9/2 313/11/2
f 391/4/1 392/2/1 355/1/1 354/3/1
f 346/8/5 134/6/5 243/5/5 184/7/5
f 398/4/4 391/2/4 354/1/4 105/3/4
f 316/8/6 373/6/6 134/5/6 346/7/6
f 15/12/1 227/10/1 80/9/1 275/11/1
f 392/4/2 399/2/2 100/1/2 355/3/2
f 400/4/3 27/2/3 303/1/3 386/3/3
f 301/4/1 385/2/1 386/1/1 303/3/1
f 385/4/6 301/2/6 49/1/6 401/3/6
f 365/12/1 70/10/1 222/9/1 64/11/1
f 70/12/2 68/10/2 73/9/2 222/11/2
f 269/4/6 390/2/6 226/1/6 203/3/6
f 68/12/5 364/10/5 338/9/5 73/11/5
f 90/12/1 256/10/1 257/9/1 96/11/1
f 366/12/4 90/10/4 96/9/4 333/11/4
f 256/12/2 192/10/2 258/9/2 257/11/2
f 214/8/1 213/6/1 114/5/1 231/7/1
f 256/12/3 90/10/3 91/9/3 286/11/3
f 213/8/2 163/6/2 116/5/2 114/7/2
f 239/12/4 240/10/4 6/9/4 241/11/4
f 10/12/5 239/10/5 241/9/5 12/11/5
f 348/12/2 10/10/2 12/9/2 397/11/2
f 339/4/6 194/2/6 188/1/6 402/3/6
f 19/12/2 20/10/2 53/9/2 208/11/2
f 387/12/1 358/10/1 388/9/1 357/11/1
f 81/4/6 299/2/6 121/1/6 403/3/6
f 299/4/1 81/2/1 83/1/1 404/3/1
f 405/4/3 135/2/3 404/1/3 83/3/3
f 209/8/6 406/6/6 152/5/6 262/7/6
f 406/8/1 209/6/1 200/5/1 407/7/1
f 152/8/4 406/6/4 253/5/4 154/7/4
f 254/12/4 139/10/4 141/9/4 171/11/4
f 272/4/2 224/2/2 226/1/2 390/3/2
f 224/4/5 407/2/5 252/1/5 226/3/5
f 12/12/6 241/10/6 281/9/6 103/11/6
f 237/8/4 235/6/4 176/5/4 238/7/4
f 235/8/1 312/6/1 248/5/1 176/7/1
f 330/8/3 212/6/3 29/5/3 331/7/3
f 88/4/6 408/2/6 132/1/6 409/3/6
f 346/4/3 134/2/3 410/1/3 87/3/3
f 409/4/5 132/2/5 134/1/5 346/3/5
f 30/4/6 26/2/6 214/1/6 213/3/6
f 395/4/2 213/2/2 114/1/2 349/3/2
f 214/4/4 25/2/4 411/1/4 231/3/4
f 213/4/5 214/2/5 231/1/5 114/3/5
f 286/8/4 191/6/4 287/5/4 271/7/4
f 204/8/4 346/6/4 184/5/4 185/7/4
f 203/8/3 226/6/3 225/5/3 230/7/3
f 221/8/3 73/6/3 222/5/3 247/7/3
f 70/8/5 365/6/5 64/5/5 222/7/5
f 181/8/6 232/6/6 231/5/6 114/7/6
f 181/8/2 114/6/2 126/5/2 284/7/2
f 262/12/4 387/10/4 357/9/4 263/11/4
f 171/8/3 265/6/3 140/5/3 141/7/3
f 177/12/5 262/10/5 263/9/5 412/11/5
f 254/8/5 264/6/5 265/5/5 171/7/5
f 369/8/3 309/6/3 299/5/3 81/7/3
f 264/8/4 138/6/4 140/5/4 265/7/4
f 267/8/4 315/6/4 67/5/4 339/7/4
f 356/8/5 267/6/5 339/5/5 216/7/5
f 280/8/2 285/6/2 5/5/2 281/7/2
f 407/8/1 224/6/1 226/5/1 252/7/1
f 245/8/1 26/6/1 232/5/1 219/7/1
f 210/4/6 413/2/6 406/1/6 209/3/6
f 207/8/2 22/6/2 52/5/2 290/7/2
f 406/4/4 413/2/4 159/1/4 253/3/4
f 209/4/5 406/2/5 407/1/5 200/3/5
f 330/8/4 331/6/4 162/5/4 236/7/4
f 237/8/3 236/6/3 162/5/3 235/7/3
f 331/8/1 353/6/1 312/5/1 162/7/1
f 155/8/1 412/6/1 117/5/1 116/7/1
f 248/8/2 216/6/2 218/5/2 370/7/2
f 71/8/2 69/6/2 221/5/2 247/7/2
f 19/8/1 207/6/1 290/5/1 208/7/1
f 219/8/1 181/6/1 284/5/1 414/7/1
f 229/8/2 201/6/2 203/5/2 230/7/2
f 15/8/2 13/6/2 299/5/2 275/7/2
f 238/4/3 115/2/3 182/1/3 176/3/3
f 110/8/2 356/6/2 216/5/2 112/7/2
f 337/4/4 380/2/4 415/1/4 95/3/4
f 96/4/3 95/2/3 415/1/3 270/3/3
f 383/4/2 336/2/2 96/1/2 270/3/2
f 25/4/1 395/2/1 349/1/1 411/3/1
f 42/4/4 416/2/4 33/1/4 417/3/4
f 418/4/6 278/2/6 403/1/6 127/3/6
f 234/4/2 46/2/2 419/1/2 34/3/2
f 129/4/3 405/2/3 277/1/3 420/3/3
f 418/4/2 127/2/2 129/1/2 420/3/2
f 260/4/4 409/2/4 346/1/4 204/3/4
f 416/4/1 234/2/1 34/1/1 33/3/1
f 325/4/1 393/2/1 221/1/1 73/3/1
f 421/4/3 74/2/3 73/1/3 221/3/3
f 394/4/5 327/2/5 74/1/5 421/3/5
f 315/8/5 255/6/5 365/5/5 246/7/5
f 247/12/6 222/10/6 73/9/6 221/11/6
f 384/12/3 300/10/3 265/9/3 171/11/3
f 264/12/1 254/10/1 171/9/1 265/11/1
f 254/12/6 264/10/6 14/9/6 372/11/6
f 262/8/1 177/6/1 412/5/1 263/7/1
f 196/4/2 419/2/2 45/1/2 422/3/2
f 377/4/6 140/2/6 265/1/6 342/3/6
f 234/4/3 416/2/3 197/1/3 195/3/3
f 45/4/3 44/2/3 423/1/3 422/3/3
f 411/4/1 123/2/1 175/1/1 424/3/1
f 417/4/4 198/2/4 423/1/4 44/3/4
f 181/4/5 232/2/5 425/1/5 284/3/5
f 232/4/4 411/2/4 424/1/4 425/3/4
f 345/4/3 426/2/3 151/1/3 375/3/3
f 171/4/5 265/2/5 426/1/5 179/3/5
f 284/4/3 425/2/3 424/1/3 351/3/3
f 265/4/4 140/2/4 151/1/4 426/3/4
f 162/12/2 164/10/2 117/9/2 182/11/2
f 378/8/6 243/6/6 242/5/6 54/7/6
f 427/4/5 266/2/5 402/1/5 147/3/5
f 314/8/2 350/6/2 285/5/2 240/7/2
f 266/4/4 267/2/4 339/1/4 402/3/4
f 166/4/5 165/2/5 313/1/5 428/3/5
f 118/4/1 418/2/1 420/1/1 130/3/1
f 165/4/4 429/2/4 160/1/4 313/3/4
f 267/4/1 430/2/1 148/1/1 339/3/1
f 431/4/2 166/2/2 428/1/2 168/3/2
f 258/8/4 287/6/4 332/5/4 329/7/4
f 228/8/3 372/6/3 137/5/3 227/7/3
f 97/4/1 91/2/1 270/1/1 415/3/1
f 428/4/6 313/2/6 112/1/6 109/3/6
f 60/4/6 61/2/6 432/1/6 433/3/6
f 434/4/2 21/2/2 22/1/2 207/3/2
f 435/4/5 331/2/5 162/1/5 235/3/5
f 412/12/5 155/10/5 116/9/5 117/11/5
f 22/4/3 400/2/3 308/1/3 207/3/3
f 117/12/3 116/10/3 181/9/3 182/11/3
f 39/4/2 435/2/2 235/1/2 40/3/2
f 60/4/2 433/2/2 106/1/2 431/3/2
f 434/4/6 305/2/6 401/1/6 21/3/6
f 433/4/5 432/2/5 161/1/5 167/3/5
f 39/4/6 396/2/6 331/1/6 435/3/6
f 432/4/4 61/2/4 429/1/4 111/3/4
f 413/4/1 210/2/1 311/1/1 389/3/1
f 17/4/1 434/2/1 207/1/1 19/3/1
f 57/4/6 436/2/6 437/1/6 56/3/6
f 436/4/1 57/2/1 430/1/1 199/3/1
f 56/4/5 437/2/5 186/1/5 427/3/5
f 35/4/1 36/2/1 422/1/1 423/3/1
f 437/4/4 436/2/4 145/1/4 144/3/4
f 290/12/3 208/10/3 378/9/3 183/11/3
f 69/4/2 75/2/2 421/1/2 221/3/2
f 414/8/1 249/6/1 370/5/1 220/7/1
f 207/12/5 19/10/5 208/9/5 290/11/5
f 363/12/6 379/10/6 19/9/6 207/11/6
f 164/8/3 163/6/3 213/5/3 236/7/3
f 259/4/3 438/2/3 4/1/3 410/3/3
f 275/4/2 299/2/2 404/1/2 276/3/2
f 439/4/4 2/2/4 4/1/4 438/3/4
f 84/4/5 439/2/5 438/1/5 85/3/5
f 212/8/1 330/6/1 236/5/1 213/7/1
f 408/4/6 2/2/6 439/1/6 261/3/6
f 279/4/4 10/2/4 298/1/4 398/3/4
f 440/4/5 279/2/5 103/1/5 102/3/5
f 9/4/2 440/2/2 399/1/2 294/3/2
f 9/4/6 10/2/6 279/1/6 440/3/6
